<svg width="640" height="276" viewBox="0 0 640 276" fill="none" xmlns="http://www.w3.org/2000/svg">
<path d="M543.239 28.6903C543.845 24.3729 542.936 20.9807 540.815 19.1304C538.694 17.2802 536.27 16.0466 532.937 15.4299C532.331 15.4299 531.119 15.1215 529.907 14.8131C528.695 14.5047 527.483 14.1963 526.877 14.1963C526.271 14.1963 525.362 13.888 524.453 13.5796C523.545 13.2712 522.939 12.9628 522.333 12.6544C521.727 12.3461 521.424 12.0377 521.121 11.7293C520.818 11.4209 520.515 10.8042 520.212 10.1874C519.909 9.57063 520.212 8.95387 520.212 8.3371C520.515 4.94491 522.03 2.78624 524.15 1.55272C526.271 0.319194 526.877 0.0108137 526.877 0.0108137V0.00444L630.802 0.0108137V0.00195312C630.802 0.00195312 630.802 0.0220582 630.802 0.0108137C634.438 0.0108137 637.164 0.627575 638.376 1.55272C639.588 2.47786 640.194 4.32815 639.891 7.10358C639.891 8.02872 639.588 8.95386 639.285 9.57063C638.982 10.1874 638.679 10.8042 637.77 11.4209C636.861 12.0377 636.558 12.3461 636.255 12.6544C635.952 12.9628 635.044 13.2712 633.832 13.5796C632.62 13.888 632.014 14.1963 631.105 14.1963C630.196 14.1963 629.287 14.5047 627.772 14.8131C626.257 15.1215 625.045 15.4299 624.136 15.4299C618.076 16.6634 613.228 18.5137 609.896 20.9807C606.563 23.4478 603.533 28.3819 600.806 35.1662C597.17 44.4177 572.022 105.169 525.665 217.728C524.151 222.045 522.333 226.979 520.212 231.913C518.091 236.847 516.576 241.165 515.061 244.557C513.546 247.949 512.94 250.416 512.031 252.266C511.122 255.659 512.637 257.509 515.97 257.817H531.725C548.995 257.817 562.327 255.042 572.022 249.491C581.718 243.94 591.716 233.147 602.321 217.419C611.108 204.159 616.561 196.141 618.682 193.674C620.803 191.207 623.833 189.973 627.166 189.973C632.014 189.973 634.135 191.824 633.832 195.524C633.529 198.3 632.317 202.309 630.196 207.86C628.075 213.41 624.742 221.737 619.894 232.838C615.046 243.94 611.713 251.341 610.199 255.659C606.866 264.293 604.14 270.316 602.625 272.166C601.111 274.017 596.869 274.942 593.233 274.942L418.757 275.25C413.304 275.25 412.09 275.353 411.181 274.737C411.181 274.737 410.88 272.166 411.183 270.008C411.486 267.232 412.696 264.293 415.12 263.06C417.544 261.826 428.407 260.901 433.557 259.976C442.95 258.126 449.616 253.192 453.252 245.174C490.216 158.827 517.182 95.3005 533.543 54.5942C539.603 39.4836 542.936 30.8489 543.239 28.6903Z" fill="#EBBF6C"/>
<path d="M243.562 169.628C243.562 205.564 234.112 232.059 215.517 249.418C196.923 266.777 167.659 275.304 128.03 275.304C103.034 275.304 79.5616 272.563 57.9184 267.386C36.2752 262.208 17.3755 254.29 0.914501 244.241V146.483C27.435 172.065 56.6991 184.855 88.7066 184.855C103.034 184.855 114.008 182.419 121.934 177.851C129.859 173.283 133.517 166.583 133.517 158.056C133.517 155.924 133.517 153.792 132.908 151.661C127.725 155.011 121.324 157.751 113.093 159.883C104.863 162.015 96.6323 163.233 87.4873 163.233C60.6619 163.233 39.3236 155.924 23.4722 141.306C7.92568 126.384 0 106.589 0 81.9211C0 66.6941 3.35317 52.9899 9.75468 40.5037C16.1562 28.0176 25.3012 18.5769 36.5801 12.4861C47.8589 6.39533 61.2716 2.74085 74.9891 1.82724C82.0003 1.21816 89.926 0.913618 98.1565 0.609079C106.387 0.304539 115.837 0.304539 126.201 0H243.562V169.628ZM117.666 111.766C124.067 111.766 129.25 110.243 132.908 107.198V60.9079H129.859C117.971 60.9079 108.826 63.0397 102.729 67.3032C96.6323 71.5668 93.584 78.2666 93.584 88.0119C93.584 95.6254 95.7178 101.412 100.29 105.675C104.863 109.939 110.655 112.07 117.666 112.07V111.766Z" fill="#EBBF6C"/>
<path d="M352.061 0.0633632L377.972 57.3168L402.664 0.0633632L527.466 0L411.325 275.304L273.719 275.367L317.92 170.91L242.321 0.0633632H352.061Z" fill="#EBBF6C"/>
</svg>
