<svg width="307" height="75" viewBox="0 0 307 75" fill="none" xmlns="http://www.w3.org/2000/svg">
<path d="M111.057 5.87275C111.181 4.99013 110.995 4.29664 110.562 3.91838C110.128 3.54011 109.633 3.28793 108.951 3.16184C108.827 3.16184 108.579 3.0988 108.332 3.03575C108.084 2.97271 107.836 2.90967 107.712 2.90967C107.588 2.90967 107.402 2.84662 107.217 2.78358C107.031 2.72053 106.907 2.65749 106.783 2.59444C106.659 2.5314 106.597 2.46835 106.535 2.40531C106.473 2.34227 106.411 2.21618 106.349 2.09009C106.287 1.964 106.349 1.83791 106.349 1.71182C106.411 1.01833 106.721 0.577023 107.155 0.324846C107.588 0.0726682 107.712 0.00962392 107.712 0.00962392V0.00832091L128.96 0.00962392V0.0078125C128.96 0.0078125 128.96 0.0119227 128.96 0.00962392C129.703 0.00962392 130.261 0.135713 130.509 0.324846C130.756 0.513979 130.88 0.892245 130.818 1.45964C130.818 1.64878 130.756 1.83791 130.694 1.964C130.632 2.09009 130.57 2.21618 130.385 2.34227C130.199 2.46835 130.137 2.5314 130.075 2.59444C130.013 2.65749 129.827 2.72053 129.579 2.78358C129.332 2.84662 129.208 2.90967 129.022 2.90967C128.836 2.90967 128.65 2.97271 128.34 3.03575C128.031 3.0988 127.783 3.16184 127.597 3.16184C126.358 3.41402 125.367 3.79229 124.686 4.29664C124.004 4.801 123.385 5.8097 122.827 7.19668C122.084 9.08801 116.942 21.5077 107.464 44.5189C107.155 45.4016 106.783 46.4103 106.349 47.419C105.916 48.4277 105.606 49.3103 105.296 50.0038C104.987 50.6973 104.863 51.2016 104.677 51.5799C104.491 52.2734 104.801 52.6517 105.482 52.7147H108.703C112.234 52.7147 114.96 52.1473 116.942 51.0125C118.925 49.8777 120.969 47.6712 123.137 44.4559C124.933 41.745 126.048 40.1058 126.482 39.6015C126.916 39.0971 127.535 38.8449 128.217 38.8449C129.208 38.8449 129.641 39.2232 129.579 39.9797C129.517 40.5471 129.27 41.3667 128.836 42.5015C128.402 43.6363 127.721 45.3385 126.73 47.6081C125.739 49.8777 125.057 51.3908 124.748 52.2734C124.066 54.0386 123.509 55.2699 123.199 55.6482C122.889 56.0265 122.022 56.2156 121.279 56.2156L85.6067 56.2786C84.4917 56.2786 84.2436 56.2997 84.0578 56.1736C84.0578 56.1736 83.9961 55.6482 84.058 55.2069C84.12 54.6395 84.3675 54.0386 84.8631 53.7865C85.3586 53.5343 87.5795 53.3451 88.6326 53.156C90.553 52.7777 91.9158 51.769 92.6592 50.1299C100.217 32.4775 105.73 19.4903 109.075 11.1685C110.314 8.0793 110.995 6.31406 111.057 5.87275Z" fill="#261B07"/>
<path d="M49.7971 34.6861C49.7971 42.0326 47.8651 47.4492 44.0633 50.9979C40.2615 54.5467 34.2784 56.2899 26.1762 56.2899C21.0656 56.2899 16.2666 55.7296 11.8416 54.6712C7.41659 53.6128 3.55249 51.9941 0.186973 49.9395V29.9544C5.60919 35.1841 11.5923 37.799 18.1364 37.799C21.0656 37.799 23.3093 37.301 24.9297 36.3671C26.5502 35.4332 27.298 34.0635 27.298 32.3202C27.298 31.8844 27.298 31.4486 27.1734 31.0128C26.1139 31.6976 24.8051 32.258 23.1223 32.6938C21.4396 33.1296 19.7568 33.3786 17.8871 33.3786C12.4025 33.3786 8.03984 31.8844 4.79897 28.896C1.62043 25.8453 0 21.7985 0 16.7555C0 13.6425 0.685567 10.8409 1.99438 8.28826C3.30319 5.73564 5.17292 3.80561 7.47892 2.56043C9.78492 1.31525 12.5272 0.568143 15.3318 0.381366C16.7652 0.256848 18.3857 0.194589 20.0684 0.13233C21.7512 0.0700715 23.6832 0.0700715 25.8023 0.0078125H49.7971V34.6861ZM24.0572 22.8569C25.366 22.8569 26.4255 22.5456 27.1734 21.923V12.4596H26.5502C24.1195 12.4596 22.2498 12.8954 21.0033 13.7671C19.7568 14.6387 19.1336 16.0084 19.1336 18.0007C19.1336 19.5571 19.5698 20.7401 20.5047 21.6117C21.4396 22.4833 22.6237 22.9191 24.0572 22.9191V22.8569Z" fill="#261B07"/>
<path d="M71.9843 0.0129538L77.2819 11.7176L82.3302 0.0129538L107.847 0L84.1009 56.2821L55.967 56.2951L65.004 34.9402L49.5476 0.0129538H71.9843Z" fill="#261B07"/>
<path d="M164.039 30.1609C163.294 36.5753 160.685 42.3047 156.213 47.4736C153.79 50.2138 151.057 52.3934 148.014 54.0126C144.97 55.6318 141.74 56.3791 138.448 56.3791C134.038 56.3791 130.746 54.8222 128.696 51.6461C126.647 48.47 125.901 44.4221 126.46 39.3778C126.957 35.0807 128.448 30.9705 130.932 27.1094C133.417 23.2483 136.461 20.0722 140.187 17.7058C143.914 15.3393 147.765 14.0938 151.803 14.0938C156.213 14.0938 159.567 15.5261 161.741 18.4531C163.915 21.38 164.722 25.2411 164.163 30.1609H164.039ZM155.033 22.7501C155.467 19.0758 154.598 17.2698 152.362 17.2698C150.995 17.2698 149.504 18.1417 148.014 19.9477C146.523 21.7537 144.784 24.5561 142.796 28.4795C141.43 30.846 139.939 34.1466 138.262 38.4436C136.585 42.7407 135.591 45.8545 135.343 47.9096C134.908 51.5216 135.777 53.3276 138.013 53.3276C139.318 53.3276 140.746 52.4557 142.299 50.6497C143.852 48.8437 145.529 46.0413 147.517 42.1802C148.883 39.8137 150.374 36.5131 152.113 32.216C153.852 27.919 154.784 24.8052 155.033 22.8124V22.7501Z" fill="#261B07"/>
<path d="M161.057 50.9007C161.243 49.2815 162.051 46.9773 163.479 43.9258C164.163 42.3689 165.032 40.5629 166.026 38.57C167.02 36.5772 168.138 34.4598 169.256 32.2802C170.374 30.1005 171.244 28.4813 171.678 27.6095C172.921 25.243 173.542 23.7484 173.604 23.1256C173.666 22.5028 173.418 22.2537 172.859 22.2537C171.741 22.2537 170.126 23.437 168.014 25.8657C167.393 26.5508 166.896 27.1735 166.337 27.8586C165.778 28.5436 165.467 29.0418 165.219 29.3532C164.97 29.6646 164.784 29.9137 164.535 30.1005C164.287 30.2873 164.038 30.4119 163.79 30.4119C163.542 30.4119 163.355 30.2873 163.169 30.1005C162.982 29.9137 162.983 29.6023 162.983 29.2286C163.045 28.6682 163.479 27.8586 164.225 26.7376C164.97 25.6166 166.026 24.3088 167.33 22.9388C168.635 21.5687 170.126 20.1986 171.678 18.9531C173.231 17.7076 175.095 16.5866 177.082 15.7148C179.07 14.8429 181.058 14.407 182.921 14.407C185.84 14.407 187.083 15.7771 186.772 18.5172C186.648 19.6382 185.84 21.6933 184.474 24.6825C183.604 26.4885 182.238 29.2286 180.374 32.9652C178.511 36.7018 177.269 39.0682 176.772 40.1892C175.157 43.4275 174.287 45.3581 174.225 46.0431C174.101 47.0395 174.536 47.5378 175.467 47.5378C176.523 47.5378 178.014 46.7282 179.877 45.0467C181.741 43.3653 183.666 41.2479 185.468 38.7569C190.499 31.5329 194.785 24.2466 198.325 16.898C198.574 16.3998 198.822 16.0262 199.133 15.8393C199.443 15.6525 199.878 15.5902 200.499 15.5902C202.114 15.5902 204.723 15.5279 208.388 15.5279C209.444 15.5279 209.941 15.9016 209.816 16.6489C209.816 16.898 209.506 17.5831 208.885 18.8286C204.288 28.0454 200.81 35.394 198.45 40.7497C197.269 43.3653 196.586 45.0467 196.524 45.794C196.462 46.5413 196.772 47.0395 197.518 47.0395C198.45 47.0395 200.127 45.4826 202.611 42.3689C203.046 41.8084 203.481 41.3102 203.853 40.7497C204.226 40.1892 204.537 39.7533 204.785 39.5042C205.034 39.2551 205.22 39.006 205.406 38.7569C205.593 38.5078 205.779 38.3209 205.903 38.2586C206.027 38.1964 206.214 38.1341 206.338 38.1341C207.083 38.1341 207.456 38.5078 207.332 39.2551C207.27 39.7533 206.835 40.6874 206.09 41.9329C205.344 43.1784 204.226 44.6731 202.86 46.2922C201.493 47.9114 200.002 49.4683 198.325 50.9629C196.648 52.4576 194.847 53.7031 192.735 54.7618C190.623 55.8204 188.636 56.3187 186.71 56.3187C185.53 56.3187 184.66 55.945 184.039 55.1977C183.418 54.4504 183.17 53.3917 183.356 52.0839C183.604 50.2156 184.722 46.7904 186.71 41.8706C186.772 41.7461 186.834 41.6838 186.834 41.6215C186.834 41.5593 186.834 41.4347 186.958 41.3724C187.083 41.3102 187.021 41.1856 187.083 41.1233L186.958 40.9365C185.281 43.2407 183.232 45.5449 180.809 47.7869C178.387 50.0288 175.778 52.0216 172.921 53.7653C170.063 55.5091 167.517 56.3187 165.405 56.3187C163.79 56.3187 162.61 55.8827 161.802 54.9486C160.995 54.0144 160.684 52.7689 160.871 51.0875L161.057 50.9007Z" fill="#261B07"/>
<path d="M246.899 20.1966C246.713 21.878 246.092 23.7463 245.036 25.9259C244.042 28.1056 242.489 31.2194 240.377 35.3919C238.265 39.5644 237.023 41.8686 236.775 42.4291C235.595 44.671 234.911 46.0411 234.849 46.6638C234.787 47.3488 235.036 47.7225 235.657 47.7225C236.899 47.7225 238.7 46.2902 241.185 43.3632C241.682 42.7404 242.179 42.1177 242.613 41.4949C243.048 40.8722 243.421 40.374 243.669 40.0003C243.918 39.6266 244.166 39.3153 244.353 39.0039C244.539 38.6925 244.787 38.5057 244.912 38.3811C245.036 38.2566 245.284 38.1943 245.471 38.1943C246.154 38.1943 246.465 38.5679 246.402 39.3775C246.34 40.0626 245.843 41.1213 244.912 42.5536C243.98 43.986 242.8 45.6051 241.433 47.2243C239.197 49.7153 236.837 51.8327 234.29 53.5142C231.744 55.1956 229.197 56.0675 226.65 56.0675C223.482 56.0675 222.116 54.4483 222.551 51.1477C222.799 49.0926 223.979 45.9165 226.091 41.5572C227.147 39.3153 228.576 36.5128 230.315 33.0877C232.054 29.6625 232.986 27.9188 233.048 27.7942C234.042 25.8637 234.539 24.4313 234.663 23.5595C234.849 22.1894 234.352 21.4421 233.172 21.4421C230.688 21.4421 227.085 24.7427 222.302 31.4062C220.625 33.6482 218.575 36.8865 216.153 41.1213C213.73 45.356 211.557 49.3417 209.693 53.0782C209.258 53.9501 208.886 54.5106 208.451 54.6351C208.016 54.7597 207.146 54.8842 205.842 54.8842H200.376C199.072 54.8842 198.513 54.6351 198.575 54.1369C198.575 53.7633 199.072 52.6423 199.941 50.7117C202.488 45.356 205.904 37.6961 210.19 27.7942C211.308 25.1786 211.867 23.6217 211.867 23.2481C211.991 22.3139 211.681 21.8157 210.997 21.8157C209.817 21.8157 208.016 23.3726 205.594 26.4864C205.407 26.7978 205.097 27.1715 204.724 27.6074C204.351 28.0433 204.103 28.417 203.917 28.6038C203.73 28.7906 203.606 28.9775 203.357 29.2266C203.109 29.4757 202.923 29.6002 202.798 29.7248C202.674 29.8493 202.488 29.8493 202.302 29.8493C201.618 29.8493 201.37 29.5379 201.432 28.9152C201.494 28.2924 201.991 27.3583 202.861 26.0505C203.73 24.7427 204.848 23.3726 206.215 21.9403C208.264 19.6984 210.501 17.8301 212.861 16.3355C215.221 14.8408 217.457 14.0312 219.569 14.0312C222.675 14.0312 224.041 15.5881 223.607 18.7019C223.42 20.0097 222.923 21.7535 222.054 23.8708C221.681 24.8673 221.122 26.2373 220.315 28.0433C219.507 29.8493 219.01 31.0948 218.762 31.7799L218.886 31.9667C220.066 30.0362 221.495 28.1056 223.11 26.175C224.725 24.2445 226.526 22.3139 228.576 20.4457C230.625 18.5774 232.799 17.0205 235.098 15.8373C237.396 14.654 239.632 14.0312 241.682 14.0312C243.607 14.0312 244.974 14.5295 245.843 15.5881C246.713 16.6468 247.024 18.1415 246.775 20.1343L246.899 20.1966Z" fill="#261B07"/>
<path d="M244.353 30.1614C244.913 25.553 246.838 21.7542 250.192 18.7026C253.546 15.6511 257.522 14.1565 262.056 14.1565C264.106 14.1565 266.218 14.6547 268.267 15.7134C268.578 15.8379 269.013 16.0248 269.51 16.2116C270.007 16.3984 270.379 16.5853 270.503 16.5853C271.435 16.5853 272.988 16.5853 275.224 16.4607C277.46 16.3362 278.951 16.3362 279.696 16.3362C280.69 16.3362 281.187 16.5853 281.125 17.0212C281.125 17.208 280.752 17.9553 280.193 19.2631C280.069 19.5122 279.945 19.6368 279.883 19.7613C279.821 19.8859 279.696 19.9482 279.572 20.0727C279.448 20.1973 279.261 20.2595 279.075 20.2595L273.299 20.7577C273.795 22.9374 273.92 25.3039 273.609 27.8572C273.361 29.9746 272.74 32.0297 271.87 33.9602C271 35.8908 269.758 37.6968 268.267 39.2537C266.777 40.8106 264.913 42.1184 262.739 43.0525C260.565 43.9866 258.143 44.4848 255.596 44.4848C253.36 44.4848 251 43.7998 248.453 42.3675C248.08 42.4297 247.646 42.7411 247.273 43.1771C246.9 43.613 246.59 44.0489 246.527 44.5471C246.527 44.9831 246.527 45.3567 246.652 45.7304C246.776 46.104 247.087 46.4154 247.459 46.7268C247.832 47.0382 248.205 47.2873 248.639 47.5364C249.074 47.7855 249.633 47.9723 250.316 48.2214C251 48.4705 251.621 48.6573 252.18 48.8442C252.739 49.031 253.422 49.2178 254.292 49.5292C255.161 49.8406 255.907 50.0274 256.466 50.2142C257.956 50.7124 259.199 51.2729 260.255 51.7711C261.311 52.2693 262.304 52.9544 263.298 53.8262C264.292 54.6981 265.037 55.6945 265.472 57.0023C265.907 58.3101 266.031 59.6802 265.845 61.3616C265.41 65.1604 263.174 68.3365 259.199 71.0144C255.223 73.6922 250.441 75 244.788 75C239.881 75 236.092 74.0036 233.359 72.0731C230.626 70.1425 229.508 67.4647 229.881 64.1018C230.005 62.9808 230.378 61.9844 230.937 61.0502C231.496 60.1161 232.179 59.3688 232.925 58.8083C233.67 58.2478 234.602 57.6873 235.72 57.1891C236.838 56.6909 237.832 56.3173 238.701 56.0682C239.571 55.8191 240.565 55.57 241.745 55.2586C239.757 53.6394 238.825 51.8334 239.074 49.7783C239.322 47.91 240.006 46.2909 241.248 44.8585C242.49 43.4262 244.229 42.1184 246.59 40.7483C245.472 39.2537 244.726 37.6968 244.353 36.0776C243.981 34.4584 243.919 32.5279 244.167 30.2237L244.353 30.1614ZM247.149 72.1353H247.211C249.198 72.1353 251.062 71.6371 252.677 70.5784C254.292 69.5198 255.223 68.0874 255.41 66.2191C255.72 63.6036 254.478 61.673 251.683 60.3029C251.124 60.0538 249.882 59.5556 247.956 58.8706C246.031 58.1855 244.602 57.5628 243.67 57.0023C240.565 58.061 238.825 60.0538 238.515 62.8562C238.204 65.4718 238.887 67.6515 240.689 69.4575C242.49 71.2635 244.602 72.1976 247.211 72.1976L247.149 72.1353ZM266.155 21.0691C266.528 18.0799 265.534 16.6475 263.298 16.6475C262.056 16.6475 260.565 17.9553 258.764 20.6332C256.963 23.311 255.472 26.238 254.167 29.4764C252.863 32.7147 252.056 35.3926 251.869 37.3854C251.497 40.3746 252.366 41.8693 254.478 41.8693C255.782 41.8693 257.335 40.4992 259.137 37.7591C260.938 35.0189 262.553 32.0297 263.857 28.7291C265.162 25.4284 265.907 22.8751 266.155 21.0068V21.0691Z" fill="#261B07"/>
<path d="M306.34 22.3146C306.091 24.6188 305.346 26.6117 304.166 28.2931C302.985 29.9746 301.37 31.4692 299.383 32.5902C297.395 33.7111 295.221 34.7075 292.799 35.3926C290.376 36.0776 287.767 36.7004 284.724 37.1363C283.916 37.2609 283.295 37.3231 282.86 37.3854C282.239 39.0669 281.805 40.9351 281.556 42.9902C280.997 47.7855 282.239 50.152 285.283 50.152C288.327 50.152 292.115 47.7232 296.215 42.928C296.588 42.5543 297.022 41.9938 297.519 41.2465C298.016 40.4992 298.451 40.0633 298.7 39.8142C298.948 39.5651 299.259 39.4405 299.507 39.4405C300.19 39.4405 300.439 39.8764 300.314 40.686C300.19 41.6202 299.383 42.9902 297.768 44.9208C296.712 46.2286 295.594 47.4741 294.289 48.7196C292.985 49.9651 291.556 51.1484 289.879 52.3316C288.202 53.5149 286.401 54.449 284.351 55.1963C282.301 55.9436 280.314 56.255 278.326 56.255C275.034 56.255 272.55 55.0718 270.935 52.643C269.32 50.2142 268.761 47.0382 269.258 42.9902C269.692 39.3782 270.873 35.8285 272.736 32.2788C274.599 28.7291 276.835 25.6153 279.382 22.9997C281.929 20.3841 284.848 18.2044 288.016 16.5853C291.184 14.9661 294.227 14.1565 297.209 14.1565C300.19 14.1565 302.675 14.9038 304.29 16.3362C305.905 17.7685 306.526 19.7613 306.215 22.3769L306.34 22.3146ZM296.774 17.0212H296.712C294.848 17.0212 292.674 18.6404 290.19 21.941C287.705 25.2416 285.531 29.4764 283.668 34.7075C286.525 34.2716 289.072 33.0261 291.37 31.0955C293.668 29.165 295.532 26.9853 296.836 24.5566C297.954 22.6883 298.575 20.9446 298.762 19.4499C298.824 18.7649 298.762 18.1422 298.327 17.7062C297.892 17.2703 297.457 17.0212 296.774 17.0212Z" fill="#261B07"/>
</svg>
