<svg width="817" height="200" viewBox="0 0 817 200" fill="none" xmlns="http://www.w3.org/2000/svg">
<path d="M296.197 15.6411C296.527 13.2873 296.031 11.4378 294.875 10.429C293.719 9.42022 292.397 8.7477 290.58 8.41143C290.249 8.41143 289.588 8.2433 288.928 8.07517C288.267 7.90704 287.606 7.7389 287.276 7.7389C286.945 7.7389 286.45 7.57077 285.954 7.40264C285.458 7.23451 285.128 7.06638 284.798 6.89824C284.467 6.73011 284.302 6.56198 284.137 6.39385C283.972 6.22572 283.806 5.88945 283.641 5.55319C283.476 5.21692 283.641 4.88066 283.641 4.5444C283.806 2.69494 284.632 1.51802 285.789 0.845491C286.945 0.172963 287.276 0.00483084 287.276 0.00483084V0.00135587L343.941 0.00483084V0C343.941 0 343.941 0.0109614 343.941 0.00483084C345.923 0.00483084 347.41 0.341095 348.071 0.845491C348.732 1.34989 349.062 2.35868 348.897 3.87187C348.897 4.37626 348.732 4.88066 348.566 5.21692C348.401 5.55319 348.236 5.88945 347.74 6.22572C347.245 6.56198 347.079 6.73011 346.914 6.89824C346.749 7.06638 346.253 7.23451 345.593 7.40264C344.932 7.57077 344.601 7.7389 344.106 7.7389C343.61 7.7389 343.115 7.90704 342.289 8.07517C341.463 8.2433 340.802 8.41143 340.306 8.41143C337.002 9.08396 334.359 10.0928 332.542 11.4378C330.724 12.7829 329.072 15.473 327.585 19.1719C325.603 24.2158 311.891 57.3378 286.615 118.706C285.789 121.06 284.798 123.75 283.641 126.44C282.485 129.13 281.659 131.484 280.833 133.333C280.007 135.183 279.676 136.528 279.181 137.537C278.685 139.386 279.511 140.395 281.328 140.563H289.919C299.336 140.563 306.604 139.05 311.891 136.024C317.178 132.997 322.629 127.113 328.411 118.538C333.202 111.308 336.176 106.937 337.332 105.592C338.489 104.247 340.141 103.574 341.958 103.574C344.601 103.574 345.758 104.583 345.593 106.6C345.427 108.114 344.767 110.299 343.61 113.326C342.454 116.352 340.637 120.892 337.993 126.944C335.35 132.997 333.533 137.032 332.707 139.386C330.889 144.094 329.403 147.378 328.577 148.386C327.751 149.395 325.439 149.9 323.456 149.9L228.323 150.068C225.349 150.068 224.688 150.124 224.192 149.788C224.192 149.788 224.028 148.386 224.193 147.21C224.358 145.696 225.018 144.094 226.34 143.421C227.661 142.749 233.584 142.244 236.393 141.74C241.514 140.731 245.149 138.041 247.131 133.67C267.286 86.5928 281.989 51.9576 290.91 29.7642C294.214 21.5257 296.031 16.818 296.197 15.6411Z" fill="#F1EDE5"/>
<path d="M132.803 92.4829C132.803 112.075 127.65 126.521 117.511 135.985C107.373 145.449 91.4162 150.098 69.8088 150.098C56.1794 150.098 43.3811 148.604 31.5801 145.781C19.7791 142.958 9.47404 138.641 0.498634 133.162V79.864C14.959 93.8112 30.9153 100.785 48.3675 100.785C56.1794 100.785 62.163 99.4565 66.4845 96.9659C70.806 94.4754 72.8006 90.8225 72.8006 86.1735C72.8006 85.0112 72.8006 83.8489 72.4681 82.6867C69.6425 84.5131 66.1521 86.0074 61.6644 87.1697C57.1767 88.332 52.689 88.9961 47.7026 88.9961C33.076 88.9961 21.4413 85.0112 12.7983 77.0414C4.32149 68.9056 0 58.1131 0 44.6641C0 36.3622 1.82832 28.8905 5.31876 22.083C8.8092 15.2755 13.7955 10.1283 19.9454 6.80754C26.0952 3.48679 33.4085 1.49434 40.888 0.996225C44.7108 0.66415 49.0323 0.498113 53.52 0.332075C58.0077 0.166038 63.1603 0.166038 68.8115 0H132.803V92.4829ZM64.1576 60.9358C67.648 60.9358 70.4736 60.1056 72.4681 58.4452V33.2075H70.806C64.3238 33.2075 59.3374 34.3698 56.0132 36.6943C52.689 39.0188 51.0269 42.6716 51.0269 47.9848C51.0269 52.1358 52.1903 55.2905 54.6835 57.615C57.1767 59.9395 60.3347 61.1018 64.1576 61.1018V60.9358Z" fill="#F1EDE5"/>
<path d="M191.956 0.0345462L206.084 31.2496L219.547 0.0345462L287.596 0L224.269 150.098L149.24 150.132L173.34 93.1816L132.12 0.0345462H191.956Z" fill="#F1EDE5"/>
<path d="M437.482 80.4304C435.494 97.5369 428.537 112.816 416.61 126.601C410.15 133.909 402.861 139.722 394.744 144.04C386.627 148.358 378.013 150.351 369.234 150.351C357.473 150.351 348.693 146.199 343.227 137.729C337.76 129.259 335.773 118.463 337.264 105.011C338.589 93.5509 342.564 82.5895 349.19 72.2923C355.816 61.9952 363.933 53.525 373.872 47.2139C383.811 40.9027 394.081 37.5811 404.849 37.5811C416.61 37.5811 425.555 41.401 431.353 49.2069C437.15 57.0127 439.304 67.3099 437.813 80.4304H437.482ZM413.463 60.6666C414.622 50.8677 412.303 46.0513 406.34 46.0513C402.695 46.0513 398.72 48.3765 394.744 53.1928C390.768 58.0092 386.13 65.483 380.829 75.9462C377.185 82.2573 373.21 91.0597 368.737 102.519C364.264 113.979 361.614 122.283 360.951 127.764C359.792 137.397 362.111 142.213 368.074 142.213C371.553 142.213 375.363 139.888 379.504 135.072C383.646 130.255 388.118 122.781 393.419 112.484C397.063 106.173 401.039 97.3708 405.677 85.9111C410.315 74.4514 412.8 66.1473 413.463 60.8326V60.6666Z" fill="#F1EDE5"/>
<path d="M429.499 135.765C429.996 131.447 432.149 125.302 435.959 117.164C437.781 113.012 440.1 108.195 442.751 102.881C445.401 97.5659 448.383 91.9191 451.364 86.1062C454.346 80.2933 456.665 75.9752 457.825 73.65C461.138 67.3389 462.794 63.3529 462.96 61.6921C463.126 60.0313 462.463 59.3669 460.972 59.3669C457.99 59.3669 453.684 62.5225 448.051 68.9997C446.395 70.8266 445.07 72.4874 443.579 74.3144C442.088 76.1413 441.26 77.4699 440.597 78.3003C439.935 79.1308 439.438 79.7951 438.775 80.2933C438.112 80.7916 437.45 81.1237 436.787 81.1237C436.125 81.1237 435.628 80.7916 435.131 80.2933C434.634 79.7951 434.634 78.9647 434.634 77.9682C434.799 76.4734 435.959 74.3144 437.947 71.3249C439.935 68.3354 442.751 64.8476 446.229 61.1938C449.708 57.54 453.684 53.8862 457.825 50.5645C461.966 47.2429 466.936 44.2534 472.236 41.9283C477.537 39.6031 482.838 38.4405 487.807 38.4405C495.593 38.4405 498.906 42.0943 498.078 49.402C497.746 52.3915 495.593 57.8722 491.949 65.8441C489.63 70.6605 485.985 77.9682 481.016 87.9331C476.046 97.8981 472.733 104.209 471.408 107.199C467.101 115.835 464.782 120.984 464.616 122.81C464.285 125.468 465.445 126.796 467.929 126.796C470.745 126.796 474.721 124.637 479.691 120.153C484.66 115.669 489.795 110.022 494.599 103.379C508.017 84.1132 519.447 64.6816 528.889 45.0838C529.551 43.7552 530.214 42.7587 531.042 42.2604C531.87 41.7622 533.03 41.5961 534.686 41.5961C538.993 41.5961 545.951 41.43 555.724 41.43C558.54 41.43 559.865 42.4265 559.534 44.4195C559.534 45.0838 558.706 46.9107 557.049 50.2324C544.791 74.8126 535.515 94.4104 529.22 108.693C526.073 115.669 524.25 120.153 524.085 122.146C523.919 124.139 524.747 125.468 526.735 125.468C529.22 125.468 533.693 121.316 540.319 113.012C541.478 111.517 542.638 110.188 543.632 108.693C544.625 107.199 545.454 106.036 546.116 105.372C546.779 104.707 547.276 104.043 547.773 103.379C548.27 102.714 548.767 102.216 549.098 102.05C549.429 101.884 549.926 101.718 550.258 101.718C552.245 101.718 553.239 102.714 552.908 104.707C552.742 106.036 551.583 108.527 549.595 111.849C547.607 115.171 544.625 119.157 540.981 123.475C537.337 127.793 533.361 131.945 528.889 135.931C524.416 139.917 519.612 143.239 513.98 146.062C508.348 148.885 503.047 150.214 497.912 150.214C494.765 150.214 492.446 149.218 490.789 147.225C489.133 145.232 488.47 142.408 488.967 138.92C489.63 133.938 492.611 124.803 497.912 111.683C498.078 111.351 498.243 111.185 498.243 111.019C498.243 110.853 498.243 110.52 498.575 110.354C498.906 110.188 498.74 109.856 498.906 109.69L498.575 109.192C494.102 115.337 488.636 121.482 482.175 127.461C475.715 133.44 468.758 138.754 461.138 143.405C453.518 148.055 446.726 150.214 441.094 150.214C436.787 150.214 433.64 149.052 431.486 146.56C429.333 144.069 428.505 140.747 429.002 136.263L429.499 135.765Z" fill="#F1EDE5"/>
<path d="M658.461 53.867C657.964 58.3512 656.308 63.3337 653.492 69.1466C650.841 74.9595 646.7 83.2636 641.068 94.3911C635.436 105.519 632.123 111.664 631.46 113.158C628.313 119.137 626.491 122.791 626.325 124.452C626.159 126.279 626.822 127.275 628.478 127.275C631.791 127.275 636.595 123.456 643.221 115.65C644.546 113.989 645.872 112.328 647.031 110.667C648.191 109.006 649.185 107.678 649.847 106.681C650.51 105.685 651.172 104.854 651.669 104.024C652.166 103.193 652.829 102.695 653.16 102.363C653.491 102.031 654.154 101.865 654.651 101.865C656.473 101.865 657.301 102.861 657.136 105.02C656.97 106.847 655.645 109.671 653.16 113.491C650.675 117.311 647.528 121.629 643.884 125.947C637.92 132.59 631.626 138.237 624.834 142.721C618.042 147.205 611.251 149.531 604.459 149.531C596.011 149.531 592.367 145.212 593.526 136.41C594.189 130.929 597.336 122.459 602.968 110.833C605.784 104.854 609.594 97.3806 614.232 88.2461C618.871 79.1115 621.355 74.4612 621.521 74.1291C624.171 68.9805 625.497 65.1606 625.828 62.8354C626.325 59.1816 625 57.1886 621.852 57.1886C615.226 57.1886 605.619 65.991 592.864 83.7618C588.391 89.7408 582.925 98.3771 576.464 109.671C570.004 120.964 564.206 131.594 559.237 141.559C558.077 143.884 557.083 145.378 555.924 145.711C554.764 146.043 552.445 146.375 548.966 146.375H534.389C530.91 146.375 529.42 145.711 529.585 144.382C529.585 143.385 530.91 140.396 533.23 135.247C540.021 120.964 549.132 100.536 560.562 74.1291C563.544 67.1536 565.034 63.0015 565.034 62.005C565.366 59.5138 564.537 58.1851 562.715 58.1851C559.568 58.1851 554.764 62.3372 548.304 70.6413C547.807 71.4717 546.978 72.4682 545.985 73.6308C544.991 74.7934 544.328 75.7899 543.831 76.2881C543.334 76.7864 543.003 77.2846 542.34 77.9489C541.678 78.6133 541.181 78.9454 540.849 79.2776C540.518 79.6098 540.021 79.6098 539.524 79.6098C537.702 79.6098 537.039 78.7794 537.205 77.1185C537.371 75.4577 538.696 72.9665 541.015 69.4787C543.334 65.991 546.316 62.3372 549.96 58.5173C555.427 52.5383 561.39 47.5558 567.685 43.5699C573.979 39.5839 579.943 37.4248 585.575 37.4248C593.857 37.4248 597.502 41.5769 596.342 49.881C595.845 53.3687 594.52 58.019 592.201 63.6659C591.207 66.3232 589.716 69.977 587.563 74.7934C585.409 79.6098 584.084 82.9314 583.422 84.7583L583.753 85.2566C586.9 80.108 590.71 74.9595 595.017 69.8109C599.324 64.6623 604.128 59.5138 609.594 54.5313C615.061 49.5488 620.858 45.3968 626.988 42.2412C633.117 39.0856 639.08 37.4248 644.546 37.4248C649.682 37.4248 653.326 38.7535 655.645 41.5769C657.964 44.4003 658.792 48.3863 658.13 53.7009L658.461 53.867Z" fill="#F1EDE5"/>
<path d="M651.682 80.4205C653.173 68.1304 658.308 57.9994 667.253 49.8614C676.198 41.7233 686.8 37.7373 698.892 37.7373C704.359 37.7373 709.991 39.066 715.457 41.8894C716.285 42.2216 717.445 42.7198 718.77 43.2181C720.095 43.7163 721.089 44.2146 721.421 44.2146C723.905 44.2146 728.047 44.2146 734.01 43.8824C739.973 43.5502 743.949 43.5502 745.937 43.5502C748.587 43.5502 749.912 44.2146 749.747 45.3771C749.747 45.8754 748.753 47.8684 747.262 51.3561C746.931 52.0204 746.599 52.3526 746.434 52.6848C746.268 53.0169 745.937 53.183 745.606 53.5152C745.274 53.8473 744.777 54.0134 744.28 54.0134L728.875 55.3421C730.2 61.155 730.531 67.4661 729.703 74.2755C729.041 79.9223 727.384 85.403 725.065 90.5516C722.746 95.7001 719.433 100.517 715.457 104.669C711.482 108.821 706.512 112.308 700.714 114.8C694.917 117.291 688.456 118.62 681.665 118.62C675.701 118.62 669.406 116.793 662.615 112.973C661.621 113.139 660.461 113.969 659.468 115.132C658.474 116.294 657.645 117.457 657.48 118.786C657.48 119.948 657.48 120.945 657.811 121.941C658.142 122.938 658.971 123.768 659.964 124.599C660.958 125.429 661.952 126.093 663.112 126.758C664.271 127.422 665.762 127.92 667.584 128.584C669.406 129.249 671.063 129.747 672.554 130.245C674.045 130.744 675.867 131.242 678.186 132.072C680.505 132.903 682.493 133.401 683.984 133.899C687.959 135.228 691.272 136.723 694.088 138.051C696.904 139.38 699.555 141.207 702.205 143.532C704.856 145.857 706.843 148.514 708.003 152.002C709.163 155.49 709.494 159.144 708.997 163.628C707.837 173.759 701.874 182.229 691.272 189.371C680.671 196.512 667.916 200 652.841 200C639.755 200 629.65 197.343 622.362 192.194C615.073 187.046 612.092 179.904 613.085 170.936C613.417 167.946 614.411 165.289 615.902 162.797C617.392 160.306 619.215 158.313 621.202 156.819C623.19 155.324 625.675 153.829 628.657 152.5C631.638 151.172 634.289 150.175 636.608 149.511C638.927 148.847 641.577 148.182 644.725 147.352C639.424 143.034 636.939 138.217 637.602 132.737C638.264 127.754 640.086 123.436 643.399 119.616C646.712 115.796 651.351 112.308 657.645 108.655C654.664 104.669 652.676 100.517 651.682 96.1984C650.688 91.8802 650.522 86.7317 651.185 80.5866L651.682 80.4205ZM659.136 192.36H659.302C664.603 192.36 669.572 191.032 673.879 188.208C678.186 185.385 680.671 181.565 681.168 176.582C681.996 169.607 678.683 164.458 671.229 160.804C669.738 160.14 666.425 158.812 661.29 156.985C656.155 155.158 652.345 153.497 649.86 152.002C641.577 154.826 636.939 160.14 636.111 167.614C635.283 174.589 637.105 180.402 641.909 185.219C646.712 190.035 652.345 192.526 659.302 192.526L659.136 192.36ZM709.825 56.1725C710.819 48.2005 708.169 44.3806 702.205 44.3806C698.892 44.3806 694.917 47.8684 690.113 55.0099C685.309 62.1515 681.333 69.9574 677.855 78.5936C674.376 87.2299 672.223 94.3715 671.726 99.6861C670.732 107.658 673.051 111.644 678.683 111.644C682.162 111.644 686.303 107.99 691.107 100.683C695.911 93.375 700.217 85.403 703.696 76.6006C707.175 67.7983 709.163 60.9889 709.825 56.0064V56.1725Z" fill="#F1EDE5"/>
<path d="M816.956 59.4942C816.294 65.6392 814.306 70.9539 811.159 75.4381C808.011 79.9223 803.704 83.9083 798.404 86.8978C793.103 89.8873 787.305 92.5446 780.845 94.3715C774.384 96.1984 767.427 97.8592 759.31 99.0218C757.157 99.354 755.5 99.5201 754.341 99.6861C752.684 104.17 751.525 109.153 750.862 114.634C749.371 127.422 752.684 133.733 760.801 133.733C768.918 133.733 779.023 127.256 789.955 114.467C790.949 113.471 792.109 111.976 793.434 109.983C794.759 107.99 795.919 106.828 796.581 106.163C797.244 105.499 798.072 105.167 798.735 105.167C800.557 105.167 801.22 106.329 800.888 108.489C800.557 110.98 798.404 114.634 794.097 119.782C791.281 123.27 788.299 126.592 784.82 129.913C781.342 133.235 777.532 136.39 773.059 139.546C768.587 142.702 763.783 145.193 758.316 147.186C752.85 149.179 747.549 150.009 742.248 150.009C733.469 150.009 726.843 146.854 722.536 140.376C718.229 133.899 716.738 125.429 718.063 114.634C719.223 105.001 722.37 95.5341 727.34 86.0674C732.309 76.6007 738.273 68.2965 745.064 61.3211C751.856 54.3456 759.641 48.5327 768.09 44.2146C776.538 39.8964 784.655 37.7373 792.606 37.7373C800.557 37.7373 807.183 39.7303 811.49 43.5502C815.797 47.3701 817.453 52.6848 816.625 59.6602L816.956 59.4942ZM791.446 45.3771H791.281C786.311 45.3771 780.513 49.6953 773.887 58.4977C767.261 67.3 761.464 78.5936 756.494 92.5446C764.114 91.382 770.906 88.0604 777.035 82.9118C783.164 77.7632 788.133 71.9503 791.612 65.4731C794.594 60.4906 796.25 55.8403 796.747 51.8544C796.913 50.0274 796.747 48.3666 795.588 47.204C794.428 46.0415 793.268 45.3771 791.446 45.3771Z" fill="#F1EDE5"/>
</svg>
